<svg xmlns="http://www.w3.org/2000/svg" viewBox="0 0 512 512">
  <rect width="512" height="512" rx="112" fill="#00a884"/>
  <path d="M256 116c-77 0-140 59-140 132 0 26 8 50 22 71l-16 61 65-17c20 11 44 17 69 17 77 0 140-59 140-132S333 116 256 116z" fill="#fff"/>
  <path d="M216 210c-4-9-8-9-12-9h-10c-4 0-9 1-14 7s-19 18-19 45 19 52 22 56 37 57 92 78c46 17 55 14 65 13s32-13 37-26 5-24 3-26-5-4-11-7-32-16-37-18-9-3-12 3-14 18-17 21-6 4-12 1c-6-3-24-9-45-28-17-15-28-33-31-39s0-9 3-12 6-7 9-11 4-6 6-10 1-8 0-11-11-27-17-27z" fill="#00a884"/>
</svg>
